<?xml version="1.0" standalone="no"?>
<!DOCTYPE svg PUBLIC "-//W3C//DTD SVG 20010904//EN"
 "http://www.w3.org/TR/2001/REC-SVG-20010904/DTD/svg10.dtd">
<svg version="1.0" xmlns="http://www.w3.org/2000/svg"
 width="700.000000pt" height="700.000000pt" viewBox="0 0 700.000000 700.000000"
 preserveAspectRatio="xMidYMid meet">
<metadata>
Created by potrace 1.11, written by Peter Selinger 2001-2013
</metadata>
<g transform="translate(0.000000,700.000000) scale(0.100000,-0.100000)"
fill="#000000" stroke="none">
<path d="M3062 6989 c-97 -12 -99 -13 -121 -82 -55 -168 -131 -524 -131 -613
0 -110 30 -165 70 -129 25 23 54 108 105 311 80 318 89 333 185 352 47 9 408
8 675 -1 l60 -3 28 -109 c89 -350 127 -464 171 -508 22 -21 74 -23 83 -1 9 25
-15 153 -78 407 -65 261 -92 342 -115 351 -9 3 -37 8 -62 11 -26 3 -63 8 -82
11 -62 8 -723 11 -788 3z"/>
<path d="M1852 6583 c-28 -13 -69 -44 -90 -69 -58 -65 -70 -120 -62 -290 4
-67 -6 -83 -56 -95 -52 -13 -63 -29 -75 -113 -29 -198 -33 -2299 -5 -2431 3
-11 5 -26 5 -32 3 -50 167 -78 441 -76 277 2 482 27 535 67 48 35 -42 75 -203
91 -39 4 -84 8 -99 10 -15 2 -75 6 -133 10 -58 4 -121 8 -140 10 -19 2 -86 7
-149 10 -63 4 -121 9 -130 10 -9 2 -18 4 -21 4 -3 1 -6 99 -6 219 -2 307 -16
1829 -18 1935 0 49 3 91 8 94 5 4 115 7 245 8 249 3 352 9 429 28 40 10 47 16
47 37 0 19 -12 33 -50 57 -85 54 -80 44 -83 193 -3 236 -16 275 -107 320 -41
20 -66 25 -141 26 -77 2 -97 -2 -142 -23z m213 -194 c40 -19 54 -53 61 -141 7
-101 -4 -110 -123 -112 -103 -3 -162 6 -175 25 -10 16 -3 132 12 188 11 42 24
57 55 63 34 6 139 -8 170 -23z"/>
<path d="M3331 6279 c-196 -35 -389 -137 -542 -289 -318 -315 -482 -785 -448
-1290 4 -58 10 -125 14 -150 10 -72 57 -274 65 -285 4 -5 10 -23 14 -40 9 -40
95 -233 118 -267 10 -14 18 -29 18 -33 0 -23 143 -209 218 -283 110 -109 344
-251 441 -267 19 -3 38 -8 43 -11 18 -11 110 -19 218 -17 366 5 704 222 918
589 255 438 298 1044 111 1539 -154 405 -450 692 -812 786 -93 25 -288 34
-376 18z m387 -204 c135 -37 243 -105 367 -231 238 -242 358 -506 392 -868 9
-96 9 -264 -1 -356 -43 -435 -279 -820 -602 -983 -166 -84 -421 -127 -574 -97
-235 45 -527 316 -675 624 -40 83 -98 256 -111 331 -3 16 -9 48 -14 70 -28
131 -31 395 -5 485 2 8 7 31 10 50 20 120 75 290 130 402 155 313 426 535 720
588 69 13 299 3 363 -15z"/>
<path d="M3505 5689 c-58 -54 -113 -137 -180 -274 -56 -115 -92 -212 -99 -267
-3 -18 -7 -54 -11 -79 -3 -27 -14 -54 -25 -64 -19 -17 -20 -17 -27 1 -17 45
-5 261 23 404 9 47 18 96 20 110 l5 25 -17 -24 c-43 -60 -59 -169 -59 -406 0
-185 6 -260 30 -345 8 -30 15 -59 15 -65 0 -11 -51 68 -86 134 -22 40 -89 229
-98 276 -3 11 -12 49 -21 85 -9 36 -18 78 -21 94 -3 16 -10 38 -14 50 -9 20
-7 -25 5 -114 3 -19 7 -55 10 -80 22 -179 55 -260 182 -451 50 -74 96 -145
103 -158 12 -23 11 -23 -16 -17 -89 22 -253 183 -399 391 -49 70 -75 101 -75
91 0 -19 78 -170 112 -216 96 -130 285 -288 373 -311 84 -22 113 -51 85 -84
-27 -33 -93 -18 -308 67 -84 34 -155 58 -159 55 -21 -22 106 -107 212 -142 62
-21 97 -26 174 -26 53 0 109 4 124 10 15 6 27 8 27 6 0 -3 32 7 71 21 39 14
73 23 77 20 11 -11 -124 -134 -174 -159 -27 -13 -78 -35 -114 -47 -126 -45
-176 -98 -81 -87 27 3 58 10 68 15 10 5 58 28 106 52 88 41 172 113 275 233
63 73 66 30 6 -92 -49 -99 -125 -206 -211 -294 -69 -71 -100 -114 -89 -124 8
-9 57 26 99 71 135 143 278 378 311 511 19 77 30 95 56 95 20 0 28 14 25 50
-2 23 -16 228 -17 240 -2 40 15 33 36 -13 63 -140 120 -381 141 -592 8 -83 10
-93 19 -102 4 -4 6 61 5 146 -4 290 -38 404 -183 616 -54 78 -86 135 -86 150
0 3 9 5 19 5 38 0 160 -103 302 -256 100 -107 89 -73 -26 81 -111 148 -181
197 -414 286 -13 5 -22 12 -19 15 3 2 47 7 99 10 122 8 195 -10 355 -87 127
-62 157 -71 134 -44 -20 24 -179 119 -240 143 -152 60 -301 61 -439 2 -40 -17
-75 -29 -78 -27 -10 11 30 70 80 118 84 82 188 136 277 146 56 6 82 26 54 41
-33 17 -107 6 -172 -26 -113 -56 -184 -115 -297 -247 -92 -106 -94 -109 -102
-101 -4 3 2 32 12 64 21 60 123 269 144 293 25 28 141 214 141 227 0 19 -7 15
-55 -29z m19 -574 c75 -13 149 -76 187 -160 18 -40 23 -69 23 -145 1 -82 -3
-103 -25 -150 -49 -105 -139 -181 -217 -182 -82 -1 -174 77 -233 197 -62 126
-34 247 89 388 30 33 99 69 122 63 8 -3 32 -7 54 -11z"/>
<path d="M3795 4373 c-17 -92 -96 -343 -123 -393 -34 -62 -50 -120 -33 -120
16 0 60 93 103 220 41 122 53 172 64 270 7 67 0 81 -11 23z"/>
<path d="M3987 4130 c3 -11 7 -20 9 -20 2 0 4 9 4 20 0 11 -4 20 -9 20 -5 0
-7 -9 -4 -20z"/>
<path d="M4613 6119 c-35 -10 -48 -36 -37 -71 20 -68 65 -80 339 -94 66 -3
149 -7 185 -9 36 -2 82 -4 103 -4 l38 -1 -6 -757 c-12 -1382 -13 -1484 -20
-1491 -3 -4 -25 -7 -48 -8 -509 -18 -573 -23 -660 -45 -45 -12 -58 -38 -45
-89 19 -70 30 -72 303 -75 275 -3 482 21 526 61 24 21 37 66 48 164 7 62 6
1508 -2 2217 l-2 193 -40 1 c-22 1 -67 3 -100 5 -158 8 -554 10 -582 3z"/>
<path d="M159 3069 c-20 -20 -20 -27 -14 -162 3 -78 8 -155 9 -172 2 -16 6
-66 10 -110 4 -44 9 -91 11 -105 2 -14 6 -50 10 -80 7 -66 14 -123 20 -170 2
-19 7 -60 10 -90 4 -30 8 -66 10 -80 2 -14 6 -46 10 -72 6 -53 15 -129 20
-168 2 -14 6 -54 10 -90 4 -36 8 -72 10 -80 3 -8 7 -42 10 -75 4 -33 8 -71 10
-85 18 -121 17 -134 -11 -185 -14 -27 -64 -124 -109 -215 -139 -278 -166 -375
-171 -610 -4 -242 12 -295 128 -410 132 -131 233 -141 303 -31 28 45 60 155
72 246 14 117 7 515 -11 635 -11 66 -20 194 -20 277 0 90 2 96 43 177 43 85
96 150 113 140 27 -17 34 -71 43 -349 11 -347 56 -486 143 -441 40 21 71 64
137 194 31 62 61 112 65 112 9 0 24 -42 35 -98 4 -18 21 -48 40 -67 25 -27 40
-35 68 -35 67 0 82 10 191 129 21 23 42 39 46 34 5 -4 11 -43 15 -85 3 -43 8
-90 10 -105 2 -16 6 -64 10 -108 4 -44 8 -82 10 -85 2 -3 6 -30 10 -60 4 -30
11 -63 16 -72 5 -10 7 -18 4 -18 -8 0 37 -113 57 -142 11 -16 29 -28 40 -28
21 0 21 2 14 153 -4 83 -8 163 -10 177 -2 14 -7 65 -11 114 -4 50 -8 97 -10
105 -1 9 -6 57 -10 106 -11 119 -11 120 -19 198 -4 37 -9 76 -11 85 -1 9 -6
58 -10 107 -4 50 -8 92 -10 93 -2 2 3 25 10 50 34 118 120 451 134 522 27 141
40 216 47 285 4 33 8 63 10 66 8 14 19 235 18 364 -1 169 -19 242 -69 292 -25
25 -42 33 -69 33 -69 0 -146 -99 -160 -205 -20 -158 -24 -242 -31 -655 -7
-423 -13 -557 -31 -695 -3 -22 -27 -95 -55 -163 -46 -115 -58 -162 -42 -162 4
0 24 12 45 26 48 34 72 21 63 -34 -17 -108 -117 -200 -188 -173 -48 19 -52 46
-48 439 2 178 -7 227 -39 227 -26 0 -68 -101 -100 -243 -66 -286 -121 -452
-149 -452 -37 0 -40 67 -30 615 4 209 -1 243 -42 289 -48 56 -84 33 -95 -61
-3 -26 -13 -61 -21 -77 -37 -72 -165 -215 -205 -229 -26 -9 -31 17 -42 218 -3
50 -7 106 -10 125 -3 19 -7 62 -10 95 -4 33 -8 69 -10 80 -2 11 -7 50 -10 87
-4 37 -9 77 -11 90 -4 22 -12 87 -20 158 -9 75 -16 127 -25 180 -5 30 -12 75
-15 100 -8 67 -34 229 -50 310 -20 104 -49 136 -86 99z m1431 -121 c1 -2 4
-21 7 -43 12 -68 4 -388 -12 -487 -2 -13 -6 -54 -9 -92 -10 -112 -27 -209 -44
-246 l-16 -35 -6 45 c-8 52 -4 626 5 685 11 85 26 140 42 157 14 15 32 24 33
16z m-1244 -1850 c33 -98 49 -289 49 -573 -1 -201 -3 -225 -23 -280 -41 -111
-70 -118 -159 -40 -77 67 -101 133 -98 265 3 97 10 141 45 275 42 159 84 268
134 342 25 39 42 42 52 11z"/>
<path d="M3461 2984 l-34 -14 7 -128 c4 -70 8 -143 10 -162 3 -19 7 -75 11
-125 4 -49 8 -103 10 -120 3 -26 8 -83 20 -240 14 -175 17 -213 20 -235 2 -14
6 -56 10 -95 14 -169 24 -272 30 -315 3 -19 7 -63 9 -96 5 -67 14 -160 22
-212 2 -19 7 -60 10 -93 3 -32 7 -67 8 -76 2 -10 7 -38 11 -63 4 -25 13 -57
21 -71 17 -33 79 -89 102 -90 56 -4 92 13 152 74 82 82 140 197 181 362 24 93
34 117 36 87 3 -37 55 -268 79 -348 46 -161 87 -209 179 -208 84 0 140 41 252
179 l32 40 1 -50 c6 -168 21 -214 71 -215 32 0 62 94 74 230 5 66 14 131 31
235 9 55 45 159 77 219 44 84 104 138 202 186 92 45 117 72 92 97 -24 24 -98
28 -158 8 -106 -34 -239 -136 -239 -182 0 -37 -13 1 -30 91 -31 160 -74 228
-101 159 -6 -16 -13 -104 -15 -198 -7 -268 -11 -327 -29 -380 -33 -97 -181
-275 -228 -275 -29 0 -75 43 -93 86 -14 34 -19 56 -29 149 -11 97 -13 114 -20
246 -6 125 -9 205 -20 579 -3 107 -8 227 -11 265 -3 39 -7 97 -9 130 -8 153
-40 214 -79 153 -19 -30 -40 -148 -51 -288 -3 -36 -7 -81 -10 -100 -2 -19 -9
-78 -15 -130 -5 -52 -12 -106 -15 -120 -3 -14 -7 -50 -11 -80 -13 -125 -83
-439 -131 -585 -57 -177 -120 -256 -154 -194 -12 23 -15 40 -24 139 -3 36 -8
76 -10 90 -2 14 -7 59 -10 100 -3 41 -7 95 -10 120 -2 25 -7 79 -10 120 -3 41
-8 95 -10 120 -2 25 -7 74 -10 110 -9 114 -16 194 -20 240 -2 25 -7 83 -10
130 -4 47 -8 101 -10 120 -2 19 -7 73 -10 120 -4 47 -8 99 -10 115 -4 27 -7
60 -20 189 -20 187 -44 229 -114 200z"/>
<path d="M5525 2941 c-6 -10 0 -298 10 -466 2 -38 7 -131 10 -205 3 -74 8
-169 10 -210 3 -41 7 -131 10 -200 3 -69 7 -159 10 -200 7 -126 18 -351 29
-620 11 -252 15 -270 62 -270 33 0 224 131 280 192 176 196 271 489 229 713
-23 118 -62 175 -122 175 -73 0 -137 -57 -249 -221 l-69 -101 -11 69 c-7 37
-15 109 -19 158 -3 50 -8 106 -10 125 -2 19 -7 97 -10 172 -3 75 -8 161 -10
190 -2 29 -6 114 -10 188 -10 207 -23 369 -31 381 -2 4 -6 24 -10 45 -7 46
-29 84 -48 84 -8 0 -21 3 -29 6 -8 3 -18 1 -22 -5z m539 -1316 c-2 -11 -5 -56
-8 -100 -6 -93 -45 -254 -75 -313 -23 -46 -133 -163 -170 -182 -34 -17 -48 4
-45 70 6 115 56 276 130 420 50 98 90 148 131 165 26 11 28 10 34 -14 3 -14 4
-35 3 -46z"/>
<path d="M5223 2363 c-11 -26 -16 -69 -17 -133 -1 -138 28 -195 85 -167 27 14
57 69 54 101 -4 52 -19 116 -42 174 -30 75 -55 83 -80 25z"/>
<path d="M2357 1843 c-17 -27 -28 -105 -33 -213 -11 -282 -11 -287 -37 -342
-44 -95 -221 -266 -328 -316 -46 -22 -85 -28 -105 -14 -35 24 -17 63 98 214
182 240 230 510 104 588 -68 41 -137 19 -230 -75 -65 -66 -121 -176 -152 -295
-26 -101 -31 -285 -9 -356 7 -24 11 -44 9 -44 -2 0 9 -26 25 -59 45 -89 120
-144 197 -144 89 0 171 64 328 256 49 59 90 107 91 105 2 -2 5 -68 7 -148 6
-188 26 -230 76 -157 32 47 65 138 112 301 62 220 107 336 130 336 16 0 39
-66 61 -174 60 -298 116 -393 234 -398 44 -2 58 11 53 48 -2 22 -10 31 -35 39
-89 29 -132 141 -147 385 -10 162 -95 330 -168 330 -32 0 -84 -65 -142 -177
-30 -60 -56 -103 -57 -98 -2 14 -6 74 -13 181 -7 103 -21 185 -36 214 -11 21
-25 26 -33 13z m-340 -299 c-7 -67 -101 -232 -176 -311 -32 -33 -41 -28 -41
20 0 91 70 255 142 331 38 39 38 39 59 20 17 -15 20 -27 16 -60z"/>
<path d="M5284 1832 c-6 -4 -14 -16 -18 -27 -8 -22 -9 -459 -1 -583 3 -42 7
-121 10 -175 11 -207 23 -263 62 -278 14 -5 28 -7 31 -5 19 20 23 293 8 546
-18 295 -16 274 -31 405 -8 63 -28 125 -42 125 -4 0 -13 -4 -19 -8z"/>
<path d="M6504 1771 c-176 -107 -299 -483 -244 -744 17 -82 58 -147 114 -182
45 -27 57 -30 130 -29 136 0 179 33 316 241 96 146 185 313 178 334 -5 14
-120 -97 -205 -197 -97 -115 -244 -244 -279 -244 -25 0 -61 19 -68 35 -8 21
15 63 83 155 80 106 103 145 135 225 16 39 33 81 38 95 6 14 13 64 15 111 5
72 2 93 -15 132 -36 80 -127 112 -198 68z m109 -204 c-24 -109 -103 -272 -159
-330 -44 -45 -54 -37 -50 39 5 84 52 211 104 282 41 54 117 61 105 9z"/>
</g>
</svg>
