<?xml version="1.0" encoding="UTF-8" standalone="no"?>
<svg
   xmlns:dc="http://purl.org/dc/elements/1.1/"
   xmlns:cc="http://creativecommons.org/ns#"
   xmlns:rdf="http://www.w3.org/1999/02/22-rdf-syntax-ns#"
   xmlns:svg="http://www.w3.org/2000/svg"
   xmlns="http://www.w3.org/2000/svg"
   id="svg8"
   version="1.1"
   viewBox="0 0 66.145815 52.91667"
   height="200.00002"
   width="249.99992">
  <defs
     id="defs2" />
  <metadata
     id="metadata5">
    <rdf:RDF>
      <cc:Work
         rdf:about="">
        <dc:format>image/svg+xml</dc:format>
        <dc:type
           rdf:resource="http://purl.org/dc/dcmitype/StillImage" />
        <dc:title></dc:title>
      </cc:Work>
    </rdf:RDF>
  </metadata>
  <g
     transform="translate(72.194587,-92.365062)"
     id="layer1">
    <g
       id="g3747">
      <path
         style="fill:#151515;stroke-width:0.35657454"
         d="m -71.106283,144.34788 c -0.940583,-0.80427 -1.088304,-1.16791 -1.088304,-2.67896 0,-1.9664 0.383825,-3.04595 1.902918,-5.35218 l 1.049284,-1.59299 -0.946014,-6.11674 c -0.631558,-4.08351 -0.828271,-6.23638 -0.591798,-6.47669 0.223452,-0.22707 0.47323,-0.23389 0.676599,-0.0184 0.339391,0.35949 1.799945,9.0399 1.799945,10.69749 0,0.53169 0.08602,0.9667 0.191183,0.9667 0.560752,0 2.284865,-1.6624 2.284865,-2.20309 0,-0.87712 0.542759,-1.12756 1.063057,-0.49047 0.316125,0.38707 0.366971,1.37288 0.185185,3.59055 -0.350642,4.27759 0.607911,4.13822 1.712794,-0.24904 0.289678,-1.15026 0.674397,-1.90603 0.970245,-1.90603 0.381674,0 0.462649,0.53668 0.365675,2.42348 -0.102319,1.99054 -0.02097,2.46388 0.455325,2.64962 0.330414,0.1288 0.878567,-0.0485 1.274154,-0.41235 0.8219,-0.75585 0.663292,-1.9249 -0.260623,-1.01285 -0.656926,0.25616 -0.232617,-0.50312 0.424309,-1.67092 0.366697,-0.65186 0.510387,-2.23118 0.523262,-5.75122 0.01145,-3.15421 0.173772,-5.1671 0.46354,-5.75121 0.592814,-1.195 1.844382,-1.36423 2.392486,-0.32349 0.634878,1.20549 0.202008,5.47037 -0.879368,8.66402 l -0.937602,2.76904 0.543581,4.21203 c 0.298971,2.31664 0.460977,4.29599 0.360014,4.3986 -0.513238,0.52154 -1.306385,-1.15662 -1.483206,-3.13823 -0.108173,-1.21216 -0.254139,-2.20392 -0.324393,-2.20392 -0.07025,0 -0.45587,0.33343 -0.856925,0.74098 -0.950717,0.96614 -2.187152,0.78278 -2.451563,-0.36354 -0.198221,-0.85936 -0.221783,-0.8485 -0.975305,0.44931 -1.451094,2.49926 -2.564642,1.54982 -2.564642,-2.18668 0,-2.83749 -0.299942,-3.14602 -1.451486,-1.49302 -0.502643,0.72152 -0.557762,1.22451 -0.312637,2.85295 0.996724,6.62148 -0.486666,9.56641 -3.514555,6.97733 z m 2.500645,-1.01825 c 0.436961,-0.97455 0.09872,-6.18162 -0.422823,-6.50918 -0.524898,-0.32965 -2.104962,3.29679 -2.104962,4.83116 0,1.0696 0.197877,1.57022 0.786147,1.98893 1.055129,0.75103 1.283809,0.7102 1.741638,-0.31091 z m 11.525721,-17.55139 c 0.12655,-1.79472 0.06729,-2.78574 -0.166579,-2.78574 -0.559639,0 -0.791233,1.34793 -0.771991,4.49315 0.01418,2.31898 0.08771,2.70165 0.379865,1.97697 0.199249,-0.49425 0.450666,-2.15223 0.558705,-3.68438 z m 1.975501,13.38369 c -2.295285,-0.92981 -1.908752,-5.44276 0.594898,-6.94565 0.811704,-0.48726 1.21015,-0.54176 1.76289,-0.24115 1.250077,0.67985 0.688903,2.85824 -1.197707,4.64929 -0.504853,0.47929 -0.917913,1.00499 -0.917913,1.16822 0,0.72024 1.647919,0.18934 3.05863,-0.98534 1.506756,-1.25468 1.539747,-1.32848 1.539747,-3.44474 0,-2.57061 0.815666,-2.82519 0.99579,-0.3108 l 0.111483,1.55631 0.679184,-1.13493 c 0.373553,-0.62419 0.911262,-1.13492 1.194909,-1.13492 0.726848,0 1.617003,1.41628 1.617003,2.57274 0,1.42282 0.608836,2.81903 1.229269,2.81903 0.296635,0 0.539336,0.16175 0.539336,0.35944 0,0.59047 -1.263483,0.40706 -1.857102,-0.26957 -0.303523,-0.34599 -0.686337,-1.32475 -0.850696,-2.17504 -0.164358,-0.85028 -0.458006,-1.5666 -0.652553,-1.59179 -0.194546,-0.0253 -0.736943,1.11532 -1.205325,2.53447 -0.941469,2.85259 -1.801305,3.44891 -1.801305,1.24925 v -1.33101 l -1.326456,1.29196 c -1.506512,1.46734 -2.4017,1.81486 -3.514089,1.36423 z m 2.010775,-5.5713 c 0,-0.29344 -0.147622,-0.53349 -0.328048,-0.53349 -0.552752,0 -1.794906,1.84833 -1.78391,2.65449 0.0093,0.68392 0.115909,0.64236 1.061162,-0.4136 0.577939,-0.64564 1.050796,-1.41398 1.050796,-1.7074 z m 25.003666,5.70446 c -0.133751,-0.13591 -0.243183,-0.61718 -0.243183,-1.06949 v -0.82239 l -0.868225,0.8823 c -0.986939,1.00292 -2.364266,1.14933 -3.039087,0.32304 -0.251201,-0.30757 -0.645016,-1.31279 -0.875142,-2.2338 l -0.418414,-1.67459 -0.429806,1.32343 c -0.589781,1.816 -2.311615,3.27462 -3.257964,2.75994 -0.385988,-0.20992 -0.770729,-0.57328 -0.854987,-0.80746 -0.289632,-0.80506 -1.869015,-14.79168 -1.701408,-15.06728 0.09223,-0.15166 0.38986,-0.27574 0.661384,-0.27574 0.58595,0 0.669775,0.48366 1.432867,8.26737 0.3198,3.26201 0.653851,6.05226 0.742338,6.20053 0.87577,1.46747 2.705988,-3.53186 3.223595,-8.80542 0.192598,-1.96226 0.387132,-2.60715 0.786474,-2.60715 0.441398,0 0.560308,0.9426 0.707441,5.6077 0.126298,4.00434 0.315665,5.77719 0.662324,6.20054 0.672016,0.82063 1.004854,0.75119 2.194655,-0.45787 0.935802,-0.95097 1.033955,-1.27799 1.033955,-3.44474 0,-1.75474 0.118075,-2.35443 0.442153,-2.24565 0.243182,0.0816 0.540577,0.70166 0.660879,1.3779 0.120293,0.67621 0.239681,1.03145 0.265291,0.78941 0.06298,-0.59532 1.922768,-1.5369 3.035627,-1.5369 1.252396,0 1.128709,0.54881 -0.211727,0.93946 -1.603672,0.46738 -2.563002,1.97372 -2.77497,4.35727 -0.166721,1.87478 -0.593744,2.60932 -1.17407,2.01959 z m 6.012048,-0.0375 c -0.367862,-0.64605 -0.627863,-7.57569 -0.292153,-7.78655 0.596067,-0.37435 0.751421,0.29278 0.989684,4.24995 0.159897,2.65567 0.112316,3.8062 -0.15743,3.8062 -0.212629,0 -0.455675,-0.12132 -0.540101,-0.2696 z m 2.933672,-0.53918 c -0.0043,-0.44482 -0.231991,-4.12249 -0.505938,-8.1726 -0.273946,-4.05011 -0.436453,-7.42647 -0.361125,-7.50301 0.07533,-0.0767 0.366176,-0.0499 0.646333,0.0595 0.384107,0.14979 0.566815,1.2436 0.742935,4.44767 0.128463,2.33699 0.315135,4.68666 0.414831,5.22153 l 0.181265,0.97249 1.07316,-1.24207 c 1.3429,-1.55425 2.562488,-1.65646 3.025569,-0.25358 0.706095,2.1391 -0.681132,5.10016 -3.007917,6.42046 -1.874894,1.06388 -2.199197,1.07117 -2.209113,0.0498 z m 3.32556,-2.37841 c 0.361287,-0.40568 0.740353,-1.49011 0.842362,-2.4098 0.17707,-1.59639 0.152677,-1.65437 -0.537957,-1.27876 -0.834475,0.45382 -2.207231,3.13187 -2.207231,4.30599 0,0.65034 0.115139,0.73517 0.62297,0.45898 0.342633,-0.18634 0.918569,-0.67072 1.279856,-1.07641 z m 3.280955,2.17039 c -1.830321,-2.05525 0.567377,-7.48046 2.9643467,-6.70737 1.5621805,0.50385 1.0100292,3.11198 -1.0622817,5.01776 -0.916456,0.84283 -0.913181,1.26859 0.0097,1.26859 0.400738,0 1.5945465,-0.83223 2.6529087,-1.84939 1.0583629,-1.01717 1.9242936,-1.68744 1.9242936,-1.4895 0,0.55491 -2.4150746,3.6399 -3.1715672,4.0513 -1.0530951,0.57274 -2.6747451,0.43029 -3.3174531,-0.29139 z m 2.47063,-4.11262 c 0.5872078,-1.15391 0.5047239,-1.46526 -0.304586,-1.14967 -0.584602,0.22797 -1.336564,1.67149 -1.336564,2.56578 0,0.47319 0.09105,0.48947 0.553905,0.0992 0.304646,-0.25695 0.793906,-0.93879 1.087245,-1.51522 z m -12.77183,-4.91624 c -0.311006,-0.51138 -0.293385,-2.38109 0.363728,-2.38109 0.309914,0 0.866432,1.53629 0.800263,1.88301 -0.137782,0.72194 -0.844037,1.02415 -1.163991,0.49808 z m -19.924289,-10.02356 c -7.673907,-2.7838 -9.882497,-12.71259 -4.1285,-18.5598 3.666124,-3.725504 9.515615,-4.225226 13.891882,-1.186758 5.592155,3.882658 6.207521,12.381408 1.24847,17.242468 -2.830575,2.77465 -7.401016,3.81396 -11.011852,2.50409 z m 8.065418,-2.07302 c 3.318937,-1.83565 5.141712,-5.24279 4.869123,-9.10141 -0.202366,-2.8646 -1.114307,-4.81006 -3.116293,-6.64804 -1.977864,-1.81581 -3.626121,-2.478031 -6.176674,-2.481548 -4.195775,-0.0059 -7.882715,2.660598 -9.137281,6.608058 -0.734465,2.31097 -0.742309,3.63867 -0.0358,6.05633 0.844148,2.8886 3.476261,5.53222 6.517872,6.54638 1.728959,0.57647 5.111814,0.1083 7.079041,-0.97977 z m -3.17986,-1.41978 c -0.0032,-0.20759 0.175362,-0.56169 0.396976,-0.7869 0.221617,-0.22521 0.622556,-1.18763 0.890978,-2.13873 0.446658,-1.58263 0.474,-1.61268 0.322442,-0.35438 -0.149409,1.24045 -1.596076,4.18697 -1.610396,3.28001 z m -2.138066,-1.05305 c 1.177859,-0.88307 2.479005,-2.57025 2.483497,-3.22033 0.0015,-0.18554 -0.320633,0.0149 -0.71537,0.44549 -0.394735,0.43055 -1.150815,1.0045 -1.680176,1.27541 -1.29832,0.66445 -3.019902,1.06836 -2.764625,0.64862 0.111426,-0.18322 0.721665,-0.43584 1.356093,-0.56141 0.634425,-0.12553 1.551438,-0.56333 2.037805,-0.97283 0.726344,-0.61156 0.757937,-0.70197 0.176858,-0.50619 -2.178293,0.73393 -4.481097,0.47526 -6.024189,-0.6767 -0.491782,-0.36711 -0.124666,-0.3199 1.248954,0.16064 2.190324,0.76627 3.183491,0.87379 3.183491,0.34462 0,-0.19769 -0.287186,-0.35944 -0.638191,-0.35944 -1.059088,0 -3.738969,-1.96932 -4.45223,-3.27172 -0.628888,-1.14836 -0.589732,-1.12947 0.654515,0.31566 1.182562,1.37351 2.879921,2.5966 3.603426,2.5966 0.145099,0 -0.225835,-0.5257 -0.824293,-1.16821 -1.401211,-1.50437 -1.75229,-2.24431 -2.003964,-4.22356 -0.201058,-1.58116 -0.193626,-1.57308 0.330663,0.35946 0.29499,1.08733 0.856561,2.38137 1.247939,2.8756 l 0.711595,0.89864 -0.287463,-0.89864 c -0.424507,-1.32702 -0.302795,-4.40158 0.206603,-5.21901 0.431973,-0.69319 0.437853,-0.69344 0.223388,-0.009 -0.49657,1.58408 -0.633334,3.7905 -0.234952,3.7905 0.22099,0 0.4018,-0.37273 0.4018,-0.82826 0,-1.08947 1.854254,-4.03372 2.894459,-4.59592 0.613888,-0.33179 0.482708,-0.0628 -0.522627,1.07158 -1.082979,1.22202 -2.01811,2.80753 -2.01811,3.4217 0,0.0554 0.6356,-0.51376 1.412449,-1.26471 1.317968,-1.27406 3.606752,-2.16943 4.145673,-1.62178 0.120628,0.12255 -0.133462,0.22288 -0.564637,0.22288 -0.941252,0 -2.56671,0.81163 -3.214874,1.60527 -0.419553,0.51372 -0.367745,0.53519 0.49094,0.20343 1.455422,-0.56231 3.398778,-0.43263 5.070163,0.33832 0.826823,0.38138 1.503316,0.77312 1.503316,0.87051 0,0.0974 -0.720591,-0.14681 -1.60131,-0.5427 -0.954007,-0.42885 -2.133637,-0.67135 -2.918201,-0.59992 l -1.31689,0.11996 1.414885,0.44659 c 1.474159,0.46531 2.347772,1.10992 3.529671,2.60447 0.506765,0.6408 0.360354,0.57459 -0.530582,-0.24004 -2.219303,-2.02919 -3.988918,-2.64053 -2.205869,-0.76203 1.399489,1.47439 1.871999,2.74498 1.813308,4.876 l -0.04638,1.68398 -0.251865,-1.97697 c -0.220399,-1.73004 -1.171298,-4.31342 -1.587691,-4.31342 -0.08004,0 -0.05112,0.59128 0.06429,1.31396 0.137597,0.86166 0.08389,1.23487 -0.15603,1.08419 -0.208193,-0.1307 -0.456877,0.23268 -0.577064,0.84334 -0.218146,1.10841 -3.058982,4.30697 -3.825278,4.30697 -0.237462,0 0.103221,-0.40108 0.757075,-0.89127 z m 2.374601,-4.20369 c 1.500336,-1.43233 0.823986,-3.69252 -1.22988,-4.10995 -0.86927,-0.17667 -1.27057,-0.0357 -1.995796,0.70133 -1.139816,1.15827 -1.151993,2.1774 -0.03952,3.3079 1.072725,1.09009 2.192661,1.12464 3.265202,0.10066 z m -19.650027,7.84856 c -0.297026,-0.36368 -0.386307,-3.16418 -0.318384,-9.98673 0.09434,-9.47715 0.09474,-9.481371 0.876851,-9.594402 0.655221,-0.09466 0.749891,-0.278566 0.582168,-1.130773 -0.275753,-1.401094 0.862096,-2.530374 2.549559,-2.530374 2.048127,0 2.696157,0.544303 2.580812,2.167718 -0.05457,0.767893 0.01231,1.509481 0.148612,1.647981 0.471278,0.138501 1.388124,0.559684 1.17144,0.82499 -0.264591,0.32398 -2.570619,0.39162 -4.327553,0.39162 h -2.616 l 0.09484,8.53696 0.09484,8.53695 3.360351,0.17973 c 2.672561,0.14294 5.128958,0.29008 5.128958,0.71889 0,0.77232 -8.711515,0.99043 -9.326477,0.23744 z m 5.193749,-20.636269 c -0.09639,-0.851349 -0.290003,-1.00362 -1.395474,-1.097447 -1.190505,-0.101129 -1.295038,-0.0294 -1.442054,0.988486 -0.156205,1.081537 -0.135973,1.097446 1.395475,1.097446 1.486569,0 1.549124,-0.04292 1.442053,-0.988485 z m 22.231466,20.878119 c -0.129692,-0.13178 -0.235816,-0.44967 -0.235816,-0.70633 0,-0.34562 0.940695,-0.49328 3.625643,-0.56914 l 3.625643,-0.10243 0.0948,-8.52286 0.0948,-8.52288 -3.097449,-0.10395 c -2.645185,-0.0887 -3.115084,-0.19768 -3.218241,-0.745893 -0.110638,-0.587987 0.186298,-0.633284 3.533233,-0.539175 l 3.654021,0.102777 0.09459,9.525441 c 0.08576,8.63638 0.03818,9.5674 -0.509758,9.97478 -0.637497,0.47395 -7.224012,0.6542 -7.661467,0.20968 z m -15.57335,-20.139036 c -0.124411,-0.126483 -0.223854,-0.566844 -0.220987,-0.978713 0.0059,-0.842576 1.14727,-4.73571 1.490782,-5.084784 0.357146,-0.362938 9.495783,-0.274144 9.859826,0.09584 0.304548,0.30948 1.731866,4.935663 1.731866,5.613292 0,0.163384 -0.278555,0.243041 -0.619013,0.177001 -0.413776,-0.08032 -0.861151,-0.89346 -1.349335,-2.452657 l -0.730328,-2.332571 -3.72682,-0.101483 c -2.707124,-0.07373 -3.826367,0.02458 -4.09064,0.359447 -0.200102,0.253506 -0.623888,1.382785 -0.94175,2.509489 -0.571725,2.026535 -0.964717,2.641158 -1.403601,2.195175 z"
         id="path3744" />
    </g>
  </g>
</svg>
